<svg xmlns="http://www.w3.org/2000/svg" width="15.848" height="18.544" viewBox="0 0 15.848 18.544">
  <g id="그룹_4005" data-name="그룹 4005" transform="translate(-330.344 -162.122)">
    <g id="그룹_4007" data-name="그룹 4007" transform="translate(330.787 162.522)">
      <path id="패스_11787" data-name="패스 11787" d="M330.872,157.676l14.412-.272c.911,3.673.067,7.323-2.318,9.359a7.85,7.85,0,0,1-4.178,1.746,8.04,8.04,0,0,1-4.625-1.311C331.483,165.365,330.239,161.624,330.872,157.676Z" transform="translate(-330.71 -157.404)" fill="none" stroke="#fff" stroke-linecap="round" stroke-linejoin="round" stroke-width="0.8"/>
      <path id="패스_11788" data-name="패스 11788" d="M358.328,197.565q.024,2.324.049,4.648" transform="translate(-350.771 -186.338)" fill="none" stroke="#fff" stroke-linecap="round" stroke-linejoin="round" stroke-width="0.8"/>
      <path id="패스_11789" data-name="패스 11789" d="M343.419,242.692a1.945,1.945,0,0,1,.737-1.445,1.728,1.728,0,0,1,.784-.307l5.335.077a1.736,1.736,0,0,1,.773.438,1.808,1.808,0,0,1,.516,1.212Z" transform="translate(-339.986 -224.948)" fill="none" stroke="#fff" stroke-linecap="round" stroke-linejoin="round" stroke-width="0.8"/>
      <path id="패스_11790" data-name="패스 11790" d="M332.113,175.826l14.322-.212" transform="translate(-331.807 -171.329)" fill="none" stroke="#fff" stroke-linecap="round" stroke-linejoin="round" stroke-width="0.8"/>
    </g>
  </g>
</svg>
