<svg xmlns="http://www.w3.org/2000/svg" width="25.487" height="22.453" viewBox="0 0 25.487 22.453">
  <g id="like" transform="translate(971.474 -281.114)">
    <g id="그룹_4006" data-name="그룹 4006" transform="translate(0 -1)">
      <path id="path" d="M-951.991,282.614H-965.47a5.51,5.51,0,0,0-5.5,5.5v7.553a5.51,5.51,0,0,0,5.5,5.5h3.4l3.341,2.892,3.341-2.892h3.4a5.51,5.51,0,0,0,5.5-5.5v-7.553A5.51,5.51,0,0,0-951.991,282.614Z" fill="none" stroke="#fff" stroke-linecap="round" stroke-linejoin="round" stroke-width="1"/>
      <path id="path-2" data-name="path" d="M-938.743,301.193a2.637,2.637,0,0,0-2.473-1.849,2.539,2.539,0,0,0-1.8.757h0a4.2,4.2,0,0,0-.821,1.029,4.21,4.21,0,0,0-.821-1.029h0a2.539,2.539,0,0,0-1.8-.757,2.637,2.637,0,0,0-2.473,1.849c-1.019,2.855,3.015,5.962,4.536,7.01a.986.986,0,0,0,1.118,0C-941.759,307.155-937.725,304.048-938.743,301.193Z" transform="translate(-14.892 -11.388)" fill="none" stroke="#fff" stroke-linecap="round" stroke-linejoin="round" stroke-width="1"/>
    </g>
  </g>
</svg>
