<svg xmlns="http://www.w3.org/2000/svg" width="177.169" height="22.506" viewBox="0 0 177.169 22.506">
  <g id="그룹_4031" data-name="그룹 4031" transform="translate(-744.727 -457.811)">
    <g id="그룹_4027" data-name="그룹 4027">
      <g id="그룹_3954" data-name="그룹 3954">
        <g id="술을_찾고_선택하는_즐거움" data-name="술을 찾고 선택하는 즐거움" style="isolation: isolate">
          <g id="그룹_4031-2" data-name="그룹 4031" style="isolation: isolate">
            <path id="패스_11791" data-name="패스 11791" d="M756.73,464.957c-.138.184-.368.23-.552.367a2.186,2.186,0,0,0-.782.231c-.644.091-1.379.414-2.069.506-.322,0-.6.137-.92.137-.137.138-.276,0-.46.092l-.551.185a7.9,7.9,0,0,0-.6,1.655l-.459,1.609c.275-.046.6-.092.873-.137.368-.046.69-.323,1.012,0,.138-.092.138.137.23.229a5.349,5.349,0,0,1-1.334,1.565c-1.334,1.333-2.943,2.344-4.23,3.678,1.7-.275,3.449-1.011,5.242-1.057.23.046.461.137.506.368-.276.689-.965.966-1.426,1.517a53.015,53.015,0,0,1-5.2,3.358l.184.092c1.563-.046,2.115-.46,3.494-.506a11.3,11.3,0,0,1,1.518-.253,1.342,1.342,0,0,1,.736-.046.637.637,0,0,1,.69-.092l.047-.047-.139-.046.553-.091.045.045h.046v-.045a.193.193,0,0,0,.322,0c0,.045.093,0,.137.045a.164.164,0,0,0,.047-.137,1.012,1.012,0,0,0,.644-.092v.046c.092.046.229-.046.321-.046v-.092c.185-.139.414.046.553,0,0,.046-.047.046,0,.092,0,.046.045,0,.138,0-.093-.276.276.046.229-.276h.092v.045s.184-.091.276-.045l-.046.137c.139-.046.276-.183.414,0,0-.092.46,0,.184-.137.139-.138.322-.046.46-.092l.138.183c0-.046.091-.091.047-.137h.321v-.092c.138-.092.322.229.414-.092,0,.184.184,0,.138.138.138.092.046-.046.138-.138.138-.23.414.275.6-.092.092.046.183.046.183-.047.092.047.047.093,0,.139a1.062,1.062,0,0,0-.115.207,8.716,8.716,0,0,1-2.322.437,6.3,6.3,0,0,0-1.287.276c-2.645.367-3.748.689-6.393,1.173a13.289,13.289,0,0,1-3.265.413c-.092-.092-.231-.046-.323-.092-.275,0-.459-.275-.505-.552v-.137c1.425-1.012,2.115-1.38,3.587-2.392h.138a21.91,21.91,0,0,0,2.667-2.069,27.729,27.729,0,0,0-4.277,1.1c-.276,0-.551.138-.781-.092a1.014,1.014,0,0,1-.231-.736c1.473-1.793,3.5-2.851,5.06-4.6v-.045a17.035,17.035,0,0,0-3.312,1.287c-.046-.184-.183,0-.23-.092-.184-.23-.414-.321-.322-.644a22.913,22.913,0,0,1,2.484-.965c.183-.46.183-.874.367-1.334a15.54,15.54,0,0,0,.461-1.978,23.7,23.7,0,0,0-4.875,1.288.523.523,0,0,1-.553-.322c-.229-.414.277-.506.506-.6,2.668-.782,5.611-1.288,8.324-1.886.461-.045,1.059-.229,1.518-.275a10.366,10.366,0,0,1,1.289-.23Zm-6.3-5.014a24.747,24.747,0,0,1-4.6,5.749h-.092c-.046-.046,0-.091-.137-.137-.092-.231.229-.368.229-.506.047-.277.461-.322.506-.6a15.713,15.713,0,0,0,1.334-1.747l.139-.138a18.914,18.914,0,0,0,1.287-2.024,8.554,8.554,0,0,0,1.334-2.253.661.661,0,0,1,.6.138C751.166,458.978,750.613,459.438,750.43,459.943Zm-.323,3.082a.7.7,0,0,1-.551-.322v-.414a15.45,15.45,0,0,1,5.61-.92c-.045.138.185.138.092.322A29.279,29.279,0,0,0,750.107,463.025Z" fill="#fff"/>
            <path id="패스_11792" data-name="패스 11792" d="M765.448,467.854a14.091,14.091,0,0,0-5.059,1.242.622.622,0,0,1-.368-.644,19.012,19.012,0,0,1,5.887-1.38c.276.092.459.046.644.23.276.276-.185.46-.23.69a44.076,44.076,0,0,1-6.255,5.473,8.769,8.769,0,0,0,2.576-.185,17.735,17.735,0,0,1,4.461-.6c.414.091.828,0,1.058.414a5.17,5.17,0,0,1-1.978,2c-1.288.735-2.3,1.54-3.219,2.138-1.059.69-1.541.943-2.621,1.564a7.352,7.352,0,0,0-1.1.6c1.472.138,1.932-.276,3.495-.322.69-.137,1.7-.229,2.438-.321,2.322-.346,4.622-.6,6.9-.806l.368.368c-.551-.091-.919.231-1.425.139l-.092.092-.966.138c-.092-.046-.275.183-.275-.046-.139.137-.414.137-.6.183-1.887.253-3.771.506-5.611.713a20.071,20.071,0,0,1-3.772.552c-.6.046-1.609.23-1.977-.552l.322-.275a74.771,74.771,0,0,0,8.508-5.289c.137-.277.46-.368.552-.6a3.015,3.015,0,0,0-1.288-.046c-.322,0-.736.138-1.058.138-.23.092-.644,0-.92.138-.459.23-.965.137-1.426.368l-1.932.322c-.505,0-1.1.046-1.424-.368-.046-.185-.323-.322-.185-.506C760.987,471.809,763.7,470.016,765.448,467.854Zm2.484-4c-.69.276-1.518.276-2.207.551a1.784,1.784,0,0,0-.645.139,25.219,25.219,0,0,0-5.748,2.069c-.23,0-.461-.276-.553-.46.047-.137-.046-.137.047-.23a28,28,0,0,1,5.012-1.7c.139-.23.414-.046.6-.138a4.234,4.234,0,0,1,1.655-.322.965.965,0,0,1,.506-.184c.091.23.322.046.414.046l.046-.092a5.608,5.608,0,0,0,.782.138A.349.349,0,0,0,767.932,463.853Zm-4.875-1.1c-.139.184-.552.092-.737.046-.827-.966-.689-2.713-.414-3.817.093-.138.369.045.506.092l.093.092a4.371,4.371,0,0,0,.138,2.759,6.746,6.746,0,0,0,.736-3.035.314.314,0,0,1-.414-.276c0-.184.275-.276.414-.414a1.115,1.115,0,0,1,.643.414A8.29,8.29,0,0,1,763.057,462.749Z" fill="#fff"/>
            <path id="패스_11793" data-name="패스 11793" d="M782.008,461.622c.207,0,.506-.253.782-.046.6.575-.092,1.311-.276,1.862a31.235,31.235,0,0,1-2.207,3.473,1.13,1.13,0,0,1,.644.437c.344,2.3-.391,4.461-.162,6.806-.184.139-.275-.253-.436-.161-.828-2.184.252-4.714-.138-6.967-.506.46-.9,1.15-1.426,1.633-.552.483-.988,1.333-1.7,1.771h-.254c.092-.093.092-.346.139-.576l.252-.252c.23-.53.828-.829,1.035-1.38.437-.3.552-.92.967-1.265.666-.966,1.378-1.886,1.954-2.736a5.885,5.885,0,0,0,.85-1.748l-.046-.046a23.011,23.011,0,0,0-2.9,1.471c-.253.046-.391-.16-.552-.321,0-.184.023-.346.253-.346.253-.275.644-.275.92-.574a9.748,9.748,0,0,0,1.678-.8.819.819,0,0,1-.045-.415,16.258,16.258,0,0,1,.459-3.61c.391-.092.483.207.621.437C782.192,459.736,782.17,460.1,782.008,461.622Zm3.311,11.843A23.848,23.848,0,0,0,787,475.6l3.2,4.323c-.091.137-.276.229-.368.183a24.745,24.745,0,0,1-3.035-3.564l-1.955-2.414c-.528.574-1.057,1.448-1.609,1.977a14.3,14.3,0,0,0-1.885,2.3l-.391.392-.713.781c-.07.231-.3.346-.461.483l-.528.253h-.229a1.323,1.323,0,0,0,.229-.3,3.332,3.332,0,0,0,.644-.829c.207,0,.207-.252.3-.436,0,.046,0,.046.162-.207.436-.392.575-1.012,1.1-1.358.114-.068.114-.344.3-.344,1.609-2.207,3.541-4.324,4.76-6.668.091-.231.322-.53.505-.966a13.577,13.577,0,0,0-3.564,1.472c-.184-.093-.437-.139-.482-.369-.047-.252-.254-.46.229-.505.207.091.3-.162.46-.253,1.127-.391,2.185-.874,3.311-1.173a.635.635,0,0,1,.92.46A16.225,16.225,0,0,1,785.319,473.465Zm2.921-10a21.481,21.481,0,0,1,3.012-1.173c.391-.138.8-.229,1.242-.391.3.046.666-.23.873-.091l.254-.185.528.185c0,.091,0,.091-.091.207-.253.091-.437.16-.691.253l-.781.3a33.62,33.62,0,0,0-4.461,1.817,21.083,21.083,0,0,1-.574,2.759c.045.184-.047.184-.162.207-.391-.253-.322-.736-.368-1.126.184-1.127.368-2.208.483-3.289a18.9,18.9,0,0,0,.437-2.874c.391-.07.437.276.644.482C788.677,461.6,788.24,462.45,788.24,463.462Z" fill="#fff"/>
            <path id="패스_11794" data-name="패스 11794" d="M796.062,473.419a8.335,8.335,0,0,0-2.253.827,1.182,1.182,0,0,1-.6-.367c-.092-.231.093-.368.229-.46.231,0,.415-.185.645-.185.414-.091.645-.643.92-.965a10.2,10.2,0,0,0,.781-3.587.291.291,0,0,1,.414-.184c.231.046.322.275.414.46a17.962,17.962,0,0,1-.322,1.793,7.5,7.5,0,0,1-.827,1.978c1.931-.368,3.862-.644,5.794-.874,1.15.092,1.564-.23,1.931,0l-.275.322a8.818,8.818,0,0,1-1.563.23C799.764,472.637,797.947,473.005,796.062,473.419Zm4.046-9.428c-.046.138-.046.367-.091.552-.138.92-.277,1.932-.46,2.759-.092,1.057-.414,1.84-.552,2.8a2.972,2.972,0,0,1-.506,1.012h-.276a19.784,19.784,0,0,1,.322-2.3c.184-1.333.46-2.85.552-4.276-.368-.093-.783.229-1.2.275a10.775,10.775,0,0,0-2.16.645,1.082,1.082,0,0,1-.644-.322c0-.783,1.057-.552,1.563-.874.138,0,.414-.046.552-.046.736-.368,1.473-.368,2.208-.783.276,0,.6.093.643.369C800.108,463.853,800.017,463.9,800.108,463.991Z" fill="#fff"/>
            <path id="패스_11795" data-name="패스 11795" d="M816.99,461.393c-1.609,3.081-3.035,6.3-5.611,9.013a19.651,19.651,0,0,1-1.747,1.656h-.185v-.138a18.821,18.821,0,0,0,1.794-2.115,3.122,3.122,0,0,0,.828-1.2c.644-.643.827-1.563,1.425-2.115l-.045-.046c.276-.368.506-.92.736-1.241l.045-.093c.092-.092.277-.092.184-.275l.828-1.748c.277,0,.139-.276.231-.46a3.814,3.814,0,0,1,.551-.874.52.52,0,0,1,.138-.459l.139-.139c-.047-.046,0-.092,0-.138s.136,0,.136-.091c0,0,.231-.185.323-.277.092.046.183,0,.276.046C817.312,460.887,817.036,461.162,816.99,461.393Zm-1.609,9.013c-.092,1.748-.322,3.68-.322,5.335a2.916,2.916,0,0,1-.276.828c0-.138-.23-.092-.184-.276h-.092a2.21,2.21,0,0,0,0-.552l-.093-.137c0-1.611.047-3.45.185-4.967.137-.139-.046-.231.046-.368v-2.346c.045-.092.091-.092.183-.138.139.046.368,0,.506.138A8.947,8.947,0,0,1,815.381,470.406Zm9.658-6.668c.229.046,0,.184.092.276a3.431,3.431,0,0,0-.414,1.38,14.823,14.823,0,0,1-1.012,4.737c-.276.046-.23-.231-.368-.322.229-1.426.229-2.668.506-4.14a3.035,3.035,0,0,0,.046-.644c-.506.046-.966.46-1.472.552-1.426.691-3.036,1.151-4.415,1.932a2.572,2.572,0,0,1-.414-.321c0-.139-.138-.231-.046-.369a55.985,55.985,0,0,1,5.427-2.208c.138-.229.414-.091.552-.275,1.011,0,.6-1.242.965-1.748.046-.23-.046-.506.231-.69a1.012,1.012,0,0,1,.689.276A10.889,10.889,0,0,1,825.039,463.738Zm-4.14,6.9c-.184,1.011-.828,1.931-.828,2.989a55.849,55.849,0,0,1,5.427-1.564,5.013,5.013,0,0,1,2.3-.459l.092.091c-.092.092-.322,0-.322.184-2.484,1.012-5.336,1.7-7.818,2.76-.23-.092-.414-.092-.553-.277-.414-.321.231-.6.047-1.011.137-.184.092-.369.137-.6.139-.736.644-1.518.736-2.346.231-.275.414.092.645,0Z" fill="#fff"/>
            <path id="패스_11796" data-name="패스 11796" d="M834.171,459.875a4.847,4.847,0,0,1-1.679.666l-4.277,1.4a.9.9,0,0,1-.574-.322c0-.161-.092-.207-.046-.321a24.367,24.367,0,0,1,2.874-.966c3.518-1.059,3.058-.69,3.541-.69Zm7.358,2.92c-.344,1.655-.482,4.369-1.264,5.978-.322.046-.207-.414-.322-.574.161-.3,0-.506.161-.874,0-.736.437-2.736.482-3.449h-.114c-.62.759-2.622,1.77-3.265,2.529-.093.277-.369,1.863-.461,2.185-.207.046-.506.046-.506-.277-.092-.045-.207-.091-.207-.183.047-.161.115-.345.162-.506-.162.046-.3.253-.506.345-.644.368-1.425.368-1.955.828-.46.115-.943.574-1.4.689a25.846,25.846,0,0,1-2.807,1.012c-.252-.114-.574-.3-.62-.62,1.15-1.288.414-3.22,1.058-4.691l-.068-.092-1.657.667a.758.758,0,0,1-.6-.621c-.046-.162.16-.231.275-.231l3.059-.9a13.326,13.326,0,0,1,2.092-.621l.253-.162v.047h.483c.092.529-.529.506-.736.713a13.048,13.048,0,0,0-1.471.574l-1.2.369c.23.115.459,0,.506.368.069.253-.254.321-.368.574-.207.782.069,1.656-.207,2.437a3.156,3.156,0,0,1-.138,1.036,10.626,10.626,0,0,0,2.024-.69,29.763,29.763,0,0,1,4.047-1.357,30.38,30.38,0,0,0,.574-4.852c.162-.322.414-.207.621-.046.207.46,0,1.034,0,1.54a10.805,10.805,0,0,0-.138,1.45,36.174,36.174,0,0,0,3.427-2.576c.115-.345-.092-1.058.321-1.218.116.114.368.114.46.3C841.346,462.22,841.8,462.5,841.529,462.8Zm-2.483,14.487a1.958,1.958,0,0,1-.413,1.4c-.207.045-.162-.162-.278-.23a17.908,17.908,0,0,1,.53-5.5c0-.46.254-1.1.138-1.518a18.454,18.454,0,0,0-4.438,1.242c.046.091-.114.207-.207.253-.437.161-.667-.184-.942-.437.045-.161-.047-.207.045-.253a17.6,17.6,0,0,1,2.185-.782c1.149-.414,2.3-.414,3.38-.9a.5.5,0,0,1,.874.116C839.828,473.419,839.046,474.684,839.046,477.282Z" fill="#fff"/>
            <path id="패스_11797" data-name="패스 11797" d="M850.294,464.8a24.743,24.743,0,0,1-2.575.966,16.337,16.337,0,0,0-2.668.873,10.758,10.758,0,0,1-1.287.506c-.185-.184-.645-.413-.461-.69a44.427,44.427,0,0,1,6.392-2.023,2.669,2.669,0,0,0,.783-.323l.414-.091c.137.046.276-.092.46-.138.275.138,1.242-.322.919.229C851.582,464.428,850.937,464.52,850.294,464.8Zm-2.806,9.979c-.183.277-.506.277-.781.323-.23,0-.461-.231-.69-.323-.6-1.242-.138-2.529.137-3.771a6.325,6.325,0,0,1,.691-1.747.8.8,0,0,1,.689.229,9.317,9.317,0,0,0-.919,3.22l-.093.046a4.145,4.145,0,0,0,.23,1.655c.506-.414.506-.966.736-1.517a17.523,17.523,0,0,0,.323-3.081c-.184-.231.045-.506-.092-.737,0-.229-.139-.506,0-.6.229.091.621.137.621.368C848.569,470.866,848.684,473.027,847.488,474.775Zm1.151-15.912a45.509,45.509,0,0,0-.92,5.427.541.541,0,0,1-.231.506l-.23-.139c0-.506-.137-1.011-.092-1.563a40.246,40.246,0,0,1,.782-4.6.777.777,0,0,1,.138-.46.6.6,0,0,1,.689.184A1.483,1.483,0,0,1,848.639,458.863Zm4.322,10.946a30.175,30.175,0,0,1,3.909-.92c.276.046.507-.184.782-.092,0,.046,0,.183.138.138-.276.368-.827.276-1.149.551-1.334.414-2.577.46-3.726,1.288-.229,1.1-.321,2.346-.46,3.541-.138.138.092.46-.184.6-.183.046-.322-.046-.505-.138a10.356,10.356,0,0,1,.091-2.345c.092-.138,0-.276.046-.414.323-2.116.414-4.139.644-6.347.092-.23.368-.184.506-.092.092.139.276.092.322.231C853.145,467.141,853.145,468.429,852.961,469.809Z" fill="#fff"/>
            <path id="패스_11798" data-name="패스 11798" d="M865.473,469.165l.184.046c-.229.092-.276.229-.46.229l-.183.138c0-.046-.047-.046-.092-.046l-.185.139c0-.046.046-.046,0-.093-.046,0-.137.047-.137.093l.046.046c.045,0-.092.092-.138.137l-.139.046c-.367.277-.781.231-1.149.506-.322.277-.644,0-.966.323l-.046-.046a5.423,5.423,0,0,1-1.288.6c-.551.368-1.2.46-1.747.782-.506.046-.966.459-1.519.459-.183-.137-.413-.183-.413-.413.046-.23.277-.184.413-.322.967-.322,2.025-.874,3.036-1.149.414-.368.874-.277,1.333-.506a7.549,7.549,0,0,1,1.657-.506c0-.23.322-.093.46-.23l.046.045c.091-.183.322-.137.505-.229.092-.093.139.138.184-.093.23-.138.368.093.553-.092a.465.465,0,0,1,.137.046Zm-5.426,7.634-.047.276,7.474-1.886a8.387,8.387,0,0,0,1.057-.207,6.043,6.043,0,0,1,.782-.091l-.137.091.275-.091c.231-.139.6.022.828-.07.138.231.138.046.323.092-.047.046.091.092,0,.139h-.047c0-.047-.045-.047-.138,0l-.138.092-.046.091c0-.046-.069-.115-.092-.091-.276-.092-.092.137-.322.091-.091-.276-.321.138-.368-.091l-.046.137-.092-.137c-.045,0-.045.091-.091.137l-.138.046.045.092c-.137-.068-.483.046-.643-.046l-.184.092.321.047-.414.092-.045-.092-.047.046-.506.091c-.045.276-.367.092-.367.184l-1.081.368-.506.138a.064.064,0,0,0,0-.092c-.092.184-.321,0-.414.184-.229-.092-.46.23-.689.092-.138.23-.414.046-.6.276-.321,0-.551.276-.873.184-.322.184-.645.138-.966.322a16.6,16.6,0,0,1-2.714.643.752.752,0,0,1-.459-.689,27.826,27.826,0,0,0,1.149-3.818c.184-.229.644.046.736.277A30.469,30.469,0,0,1,860.047,476.8Zm.207-11.82a.236.236,0,0,0,.092.184,17.874,17.874,0,0,1,2.575-.8c.276-.229.552-.137.874-.321.3-.093.574-.184.942-.276a5.719,5.719,0,0,1,.828-.092c.115,0,.07-.138.207-.138l.783.023a8.7,8.7,0,0,0-1.127.551l-1.381.6a5.977,5.977,0,0,0-1.311.484c-1.034.322-2.091.689-3.173.965-.184-.091-.321.046-.505-.137.092-.185-.092-.323-.092-.46.276-.092.321-.368.46-.6l.966-5.105c.229.045.667.137.758.414C860.852,461.186,860.553,463.876,860.254,464.979Z" fill="#fff"/>
            <path id="패스_11799" data-name="패스 11799" d="M886.494,464.957a3.96,3.96,0,0,0,1.1.092c.047.046,0,.138,0,.183-.276.414-1.1.277-1.61.46-3.218.69-6.576,1.2-9.611,2.116.092.092.322.368.046.46l-.782.091a.7.7,0,0,1-.829-.275c.047-.184-.183-.322,0-.506a34.747,34.747,0,0,1,3.68-1.242c1.1-.092,2.162-.552,3.311-.6.23-.183.461.046.736-.183,1.242-.185,2.438-.414,3.633-.552Zm-3.633,5.2c-1.84,1.518-3.817,2.621-5.7,4,.966.185,1.748-.367,2.621-.506a16.2,16.2,0,0,1,2.852-.689.763.763,0,0,1,.6.229c.092.231-.092.415-.23.6a31.4,31.4,0,0,1-6.99,5.059,8.317,8.317,0,0,0,2.828-.185c1.149-.183,2.23-.321,3.1-.506l2.116-.253a6.022,6.022,0,0,0,.966-.183c1.2,0,1.885-.23,2.989-.277l.184.047.138-.047.139.093.229.184c-.138.092-.552.046-.735.137-.093,0-.185.139-.322.139s-.231-.093-.323.046c-.92.046-1.563.275-2.391.367-1.333.277-1.012.161-2.3.392-.321-.046-.551.183-.828.092-.367.137-.965.091-1.333.322a12.824,12.824,0,0,0-2.575.46.172.172,0,0,0-.277,0c-1.057,0-2.208.413-2.806-.6-.183-.735.783-.781,1.151-1.149a25.62,25.62,0,0,0,5.541-3.818l.047-.091c-.277.091-.737.046-1.035.276-1.334.229-2.484,1.1-3.864.552a1.135,1.135,0,0,1-.414-1.012c1.565-1.38,3.449-2.254,5.106-3.542.322-.321.8-.506,1.08-.873h-.138a12.761,12.761,0,0,0-4.483,1.609c-.231,0-.277-.322-.461-.46-.092-.551.6-.5.875-.828a13.992,13.992,0,0,1,5.1-1.149.778.778,0,0,1,.46.322C883.643,469.464,883.184,469.739,882.861,470.153Zm-1.931-9.8a22.265,22.265,0,0,1-4.829,4.921l-.369.253-.482.207-.092-.046v-.115a.4.4,0,0,1,.23-.3c.253-.575.92-.85,1.288-1.38l.828-.873c.321-.115.459-.391.713-.621a15.262,15.262,0,0,0,2.689-3.288l-.045-.069c-1.334.322-2.829.735-4.162,1.2a.411.411,0,0,1-.345-.321c.045-.207-.208-.322.045-.46l1.219-.276a6.059,6.059,0,0,1,1.2-.437c.8-.185,1.379-.437,2.253-.6.3-.253.576.161.759.413A5.71,5.71,0,0,1,880.93,460.357Zm4.943.737c.047.137.322-.093.414.183-.115.506-.85.3-1.287.506a25.271,25.271,0,0,0-2.576.46,11.407,11.407,0,0,1-2,.414c-.139-.207-.207-.322-.161-.529a2.856,2.856,0,0,1,1.334-.414c.758-.092,1.333-.391,2.092-.437.345-.069.69-.069.989-.137Z" fill="#fff"/>
            <path id="패스_11800" data-name="패스 11800" d="M891.648,467.831a54.571,54.571,0,0,1-2.115,7.634c-.23,0-.162.506-.437.276l-.139-.276.139-.367c-.046-.414.23-.783.275-1.2a1,1,0,0,0,.093-.643c.183-.322.413-.737.321-1.012a12.02,12.02,0,0,0,.6-2.346l.414-2.575c-.735,0-2.346.781-2.852-.046-.045-.091,0-.184.093-.276a12.777,12.777,0,0,0,2.943-.552.656.656,0,0,1,.759.322C891.786,467.188,891.6,467.417,891.648,467.831Zm6.094-.092v.367c.184-.091.276.093.322.185a1.394,1.394,0,0,1-.529.735,31.656,31.656,0,0,0-.621,4.186l-.046.046c.046.092-.046.138-.046.229,0,.368,0,.737-.276.92l-.23-.092c0-.091.046-.229.092-.229a3.138,3.138,0,0,1-.138-1.61,24.889,24.889,0,0,1,.322-2.667,2.569,2.569,0,0,0,.047-.6,14.659,14.659,0,0,0-4.232,1.932.973.973,0,0,1-.507-.369v-.184a9.671,9.671,0,0,1,3.082-1.518,2.432,2.432,0,0,0,.737-.275c.367-.138,1.011-.092,1.149-.6.092-.736.321-1.564.413-2.345.231-.415.691-.092.828.183A11.1,11.1,0,0,1,897.742,467.739Z" fill="#fff"/>
            <path id="패스_11801" data-name="패스 11801" d="M910.322,465.509c-.414-.139-.643.367-1.011.367-.965.276-1.84.506-2.713.69-.092.184.367.184.322.46,0,.368-.276.6-.368.92a8.084,8.084,0,0,0-.552,3.311c.506.093.92-.827,1.379-.092l.047.138a22.691,22.691,0,0,1-.414,2.437,8.717,8.717,0,0,1-.46,2.162c.229.092.413-.091.643,0a14.489,14.489,0,0,1,2.162-.368c.414-.229.92,0,1.288-.183a8.363,8.363,0,0,1,.965-.046c0,.091.161.091.093.022.23.115.413-.253.551-.022h.368l.138-.093c0,.069.483.207.506,0h.091v.046c.139.23.37-.092.553.138l.046-.091a.064.064,0,0,0,.092,0l.6.207-.46.046a12.48,12.48,0,0,1-1.748.16c-.414-.138-.69.322-1.1.184-1.494.3-1.057.092-2.438.369a14.312,14.312,0,0,1-2.344.505,8.538,8.538,0,0,0-1.7.322l-.506.046a2.931,2.931,0,0,1-.414.092l-.184.092a12.966,12.966,0,0,0-2.437.69c.183.137-.138.23-.092.322-.552.046-1.151.321-1.564-.322-.092-.23.184-.414.368-.46.782-.3,1.518-.506,2.253-.759a6.707,6.707,0,0,1-.045-2.139c.045-1.012.322-1.839.368-2.8.183-.138.413.046.6.138l.138.276a33.73,33.73,0,0,0-.322,4.323c.322.092.644-.23.875-.092.666-.506,1.562.092,2.115-.506-.139-.736.275-1.288.184-1.977.138-.046-.046-.184.045-.277a2.3,2.3,0,0,1,.277-1.1c-.139-.276,0-.46,0-.736l-.277.046-2.252,1.1c-.231,0-.415-.322-.506-.552-.092-.092.045-.23.183-.276a11.79,11.79,0,0,0,1.793-.644c0-.735-.367-1.794,0-2.391-.136-.415.139-.552.093-.92a6.971,6.971,0,0,0,.552-1.472c-.184-.046-.231,0-.414.046a24.1,24.1,0,0,0-3.68,1.15.243.243,0,0,0,.185.092c.046.138-.138.322-.23.322s-.23-.047-.23.046l-.737.046c-.183-.23-.55-.46-.414-.782a21.949,21.949,0,0,1,5.152-1.747c.874-.231,2.024-.46,2.989-.645.276.092.6-.137.874-.183a5.678,5.678,0,0,0,.827-.092C910.139,465.232,910.691,465.37,910.322,465.509ZM906,460.541c0,1.105-.23,2.346-1.242,2.852-.276.184-.459,0-.69-.184-.689-.506-.506-1.2-.552-1.978.138-.23.092-.551.322-.828.047-.506.276-.874.368-1.38.046-.137.093-.367.276-.367l.323.184c.045-.23.229-.322.413-.414a.861.861,0,0,1,.735.506A9.028,9.028,0,0,1,906,460.541Zm-.6-1.425-.414.092c-.368,1.058-.967,2.161-.644,3.4.644-.046.552-.506.828-.874.046-.23.275-.782.183-1.057.231-.368-.091-.552.139-.92C905.355,459.529,905.54,459.3,905.4,459.116Z" fill="#fff"/>
          </g>
        </g>
      </g>
    </g>
    <circle id="타원_503" data-name="타원 503" cx="1.5" cy="1.5" r="1.5" transform="translate(918.896 473.994)" fill="#ee6663"/>
  </g>
</svg>
